<svg xmlns="http://www.w3.org/2000/svg" viewBox="0 0 640 280" width="100%" height="100%">
  <defs>
    <filter id="shadow" x="-10%" y="-10%" width="120%" height="120%">
      <feDropShadow dx="0" dy="2" stdDeviation="3" flood-color="#2D3A31" flood-opacity="0.06" />
    </filter>
    <linearGradient id="goldGrad" x1="0%" y1="0%" x2="100%" y2="100%">
      <stop offset="0%" stop-color="#F7D070" />
      <stop offset="100%" stop-color="#D49B24" />
    </linearGradient>
    <linearGradient id="terraGrad" x1="0%" y1="0%" x2="100%" y2="100%">
      <stop offset="0%" stop-color="#D98A75" />
      <stop offset="100%" stop-color="#C27B66" />
    </linearGradient>
    <linearGradient id="sageGrad" x1="0%" y1="0%" x2="100%" y2="100%">
      <stop offset="0%" stop-color="#A3B29B" />
      <stop offset="100%" stop-color="#8C9A84" />
    </linearGradient>
    <linearGradient id="oceanGrad" x1="0%" y1="0%" x2="100%" y2="100%">
      <stop offset="0%" stop-color="#6CA0DC" />
      <stop offset="100%" stop-color="#2B5F8C" />
    </linearGradient>
  </defs>
  <rect width="640" height="280" rx="24" fill="#F2F0EB" />
  <rect x="8" y="8" width="624" height="264" rx="18" fill="none" stroke="#E6E2DA" stroke-width="2" />
  
    <g transform="translate(60, 40)">
    <rect width="220" height="200" rx="16" fill="#F9F8F4" stroke="#E6E2DA" stroke-width="1.5" filter="url(#shadow)" />
    
      <!-- Mirror Reflecting Light Rays / Phản -->
      <g transform="translate(110, 95)">
        <rect x="-45" y="-45" width="90" height="90" rx="16" fill="none" stroke="#8C9A84" stroke-width="5" />
        <line x1="-30" y1="30" x2="30" y2="-30" stroke="#6CA0DC" stroke-width="6" stroke-linecap="round" />
        <!-- Reflection Rays -->
        <path d="M-20 -20 L-35 -35 M0 -25 L0 -42 M20 -20 L35 -35" stroke="#C27B66" stroke-width="3" stroke-linecap="round" />
      </g>
    
  </g>
    <g transform="translate(305, 126)">
    <circle cx="14" cy="14" r="14" fill="#E6E2DA" />
    <path d="M14 7v14M7 14h14" stroke="#8C9A84" stroke-width="3" stroke-linecap="round" />
  </g>
    <g transform="translate(360, 40)">
    <rect width="220" height="200" rx="16" fill="#F9F8F4" stroke="#E6E2DA" stroke-width="1.5" filter="url(#shadow)" />
    
      <!-- Shoe Sole / Đế giày -->
      <g transform="translate(110, 100)">
        <path d="M-25 -45 C5 -45, 30 -35, 25 15 C20 45, 0 50, -20 48 C-35 45, -35 15, -30 -15 Z" fill="#5A4638" />
        <!-- Tread patterns -->
        <line x1="-20" y1="-25" x2="15" y2="-25" stroke="#F9F8F4" stroke-width="3" stroke-linecap="round" />
        <line x1="-22" y1="-5" x2="18" y2="-5" stroke="#F9F8F4" stroke-width="3" stroke-linecap="round" />
        <line x1="-20" y1="15" x2="15" y2="15" stroke="#F9F8F4" stroke-width="3" stroke-linecap="round" />
        <line x1="-15" y1="35" x2="5" y2="35" stroke="#F9F8F4" stroke-width="3" stroke-linecap="round" />
      </g>
    
  </g>
  
</svg>